<svg aria-hidden="true" style="position: absolute; width: 0; height: 0; overflow: hidden;" version="1.1" xmlns="http://www.w3.org/2000/svg" xmlns:xlink="http://www.w3.org/1999/xlink">
<defs>
<symbol id="icon-pokeball" viewBox="0 0 48 48">
<path d="M29.714 24c0 3.156-2.558 5.714-5.714 5.714s-5.714-2.558-5.714-5.714v0c0-3.156 2.558-5.714 5.714-5.714s5.714 2.558 5.714 5.714v0z"></path>
<path d="M24 48c12.090 0 22.093-8.94 23.757-20.571h-14.056c-1.413 3.995-5.222 6.857-9.7 6.857-4.48 0-8.29-2.863-9.701-6.857h-14.057c1.664 11.63 11.667 20.571 23.757 20.571zM14.3 20.571h-14.057c1.664-11.63 11.667-20.571 23.757-20.571s22.093 8.94 23.757 20.571h-14.056c-1.413-3.995-5.222-6.857-9.7-6.857-4.48 0-8.29 2.862-9.701 6.857zM29.714 24c0 3.156-2.558 5.714-5.714 5.714s-5.714-2.558-5.714-5.714v0c0-3.156 2.558-5.714 5.714-5.714s5.714 2.558 5.714 5.714v0z"></path>
</symbol>
<symbol id="icon-weight" viewBox="0 0 48 48">
<path d="M10.85 39h26.3l-3.15-22h-20l-3.15 22zM24 14c0.867 0 1.583-0.292 2.15-0.875s0.85-1.292 0.85-2.125c0-0.867-0.283-1.583-0.85-2.15s-1.283-0.85-2.15-0.85c-0.833 0-1.542 0.283-2.125 0.85s-0.875 1.283-0.875 2.15c0 0.833 0.292 1.542 0.875 2.125 0.526 0.54 1.261 0.875 2.073 0.875 0.018 0 0.036-0 0.054-0.001l-0.003 0zM29.2 14h4.8c0.767 0 1.433 0.242 2 0.725s0.9 1.108 1 1.875l3.1 22c0.133 0.9-0.092 1.692-0.675 2.375s-1.342 1.025-2.275 1.025h-26.3c-0.933 0-1.692-0.342-2.275-1.025s-0.808-1.475-0.675-2.375l3.1-22c0.1-0.767 0.433-1.392 1-1.875 0.52-0.451 1.203-0.725 1.951-0.725 0.017 0 0.035 0 0.052 0l-0.003-0h4.8c-0.241-0.409-0.446-0.882-0.589-1.381l-0.011-0.044c-0.127-0.457-0.2-0.983-0.2-1.525 0-0.018 0-0.035 0-0.053v0.003c0-1.667 0.583-3.083 1.75-4.25s2.583-1.75 4.25-1.75c1.667 0 3.083 0.583 4.25 1.75s1.75 2.583 1.75 4.25c0 0.567-0.067 1.092-0.2 1.575-0.154 0.543-0.359 1.016-0.616 1.454l0.016-0.029zM10.85 39v0z"></path>
</symbol>
<symbol id="icon-text_format" viewBox="0 0 48 48">
<path d="M11.5 38c-0.433 0-0.792-0.142-1.075-0.425s-0.425-0.642-0.425-1.075c0-0.433 0.142-0.792 0.425-1.075s0.642-0.425 1.075-0.425h25c0.433 0 0.792 0.142 1.075 0.425s0.425 0.642 0.425 1.075c0 0.433-0.142 0.792-0.425 1.075s-0.642 0.425-1.075 0.425h-25zM19.65 21.8h8.7l-4.25-11.1h-0.2l-4.25 11.1zM15.85 30c-0.533 0-0.883-0.175-1.050-0.525s-0.167-0.775 0-1.275l7-18.65c0.167-0.433 0.458-0.8 0.875-1.1s0.858-0.45 1.325-0.45c0.467 0 0.908 0.15 1.325 0.45s0.708 0.667 0.875 1.1l7 18.65c0.167 0.5 0.167 0.925 0 1.275s-0.517 0.525-1.050 0.525c-0.267 0-0.508-0.075-0.725-0.225s-0.358-0.325-0.425-0.525l-1.95-5.2h-10.15l-1.95 5.2c-0.067 0.2-0.208 0.375-0.425 0.525-0.187 0.138-0.421 0.222-0.674 0.225h-0.001z"></path>
</symbol>
<symbol id="icon-tag" viewBox="0 0 48 48">
<path d="M14.35 40c-0.008 0-0.018 0-0.028 0-0.455 0-0.86-0.214-1.12-0.547l-0.002-0.003c-0.3-0.367-0.383-0.783-0.25-1.25l1.7-6.7h-5.75c-0.467 0-0.858-0.192-1.175-0.575s-0.408-0.808-0.275-1.275c0.067-0.333 0.233-0.608 0.5-0.825 0.249-0.203 0.569-0.325 0.919-0.325 0.011 0 0.022 0 0.033 0l-0.002-0h6.5l2.25-9h-6.75c-0.467 0-0.858-0.192-1.175-0.575s-0.408-0.808-0.275-1.275c0.067-0.333 0.233-0.608 0.5-0.825 0.249-0.203 0.569-0.325 0.919-0.325 0.011 0 0.022 0 0.033 0l-0.002-0h7.5l1.85-7.4c0.067-0.333 0.225-0.6 0.475-0.8s0.542-0.3 0.875-0.3c0.467 0 0.842 0.183 1.125 0.55s0.375 0.783 0.275 1.25l-1.65 6.7h9.050l1.85-7.4c0.067-0.333 0.225-0.6 0.475-0.8s0.541-0.3 0.875-0.3c0.466 0 0.841 0.183 1.125 0.55 0.283 0.367 0.375 0.783 0.275 1.25l-1.65 6.7h5.75c0.466 0 0.858 0.192 1.175 0.575s0.408 0.808 0.275 1.275c-0.066 0.336-0.246 0.622-0.497 0.823l-0.003 0.002c-0.249 0.203-0.569 0.325-0.919 0.325-0.011 0-0.022-0-0.033-0l0.002 0h-6.5l-2.25 9h6.75c0.466 0 0.858 0.192 1.175 0.575s0.408 0.808 0.275 1.275c-0.066 0.336-0.246 0.622-0.497 0.823l-0.003 0.002c-0.249 0.203-0.569 0.325-0.919 0.325-0.011 0-0.022-0-0.033-0l0.002 0h-7.5l-1.85 7.4c-0.080 0.294-0.228 0.547-0.425 0.75l0-0c-0.217 0.233-0.542 0.35-0.975 0.35-0.008 0-0.018 0-0.028 0-0.455 0-0.86-0.214-1.12-0.547l-0.002-0.003c-0.3-0.367-0.383-0.783-0.25-1.25l1.7-6.7h-9.050l-1.85 7.4c-0.080 0.294-0.228 0.547-0.425 0.75l0-0c-0.217 0.233-0.542 0.35-0.975 0.35zM18.35 28.5h9.050l2.25-9h-9.050l-2.25 9z"></path>
</symbol>
<symbol id="icon-straighten" viewBox="0 0 48 48">
<path d="M7 36c-0.8 0-1.5-0.3-2.1-0.9s-0.9-1.3-0.9-2.1v-18c0-0.767 0.3-1.458 0.9-2.075s1.3-0.925 2.1-0.925h34c0.8 0 1.5 0.308 2.1 0.925s0.9 1.308 0.9 2.075v18c0 0.8-0.3 1.5-0.9 2.1s-1.3 0.9-2.1 0.9h-34zM7 33h34v-18h-6.5v9h-3v-9h-6v9h-3v-9h-6v9h-3v-9h-6.5v18zM13.5 24v0zM22.5 24v0zM31.5 24v0z"></path>
</symbol>
<symbol id="icon-sort" viewBox="0 0 48 48">
<path d="M16.5 36h-9c-0.433 0-0.792-0.142-1.075-0.425s-0.425-0.642-0.425-1.075c0-0.433 0.142-0.792 0.425-1.075s0.642-0.425 1.075-0.425h9c0.433 0 0.792 0.142 1.075 0.425s0.425 0.642 0.425 1.075c0 0.433-0.142 0.792-0.425 1.075s-0.642 0.425-1.075 0.425zM40.5 15h-33c-0.433 0-0.792-0.142-1.075-0.425s-0.425-0.642-0.425-1.075c0-0.433 0.142-0.792 0.425-1.075s0.642-0.425 1.075-0.425h33c0.433 0 0.792 0.142 1.075 0.425s0.425 0.642 0.425 1.075c0 0.433-0.142 0.792-0.425 1.075s-0.642 0.425-1.075 0.425zM28.5 25.5h-21c-0.433 0-0.792-0.142-1.075-0.425s-0.425-0.642-0.425-1.075c0-0.433 0.142-0.792 0.425-1.075s0.642-0.425 1.075-0.425h21c0.433 0 0.792 0.142 1.075 0.425s0.425 0.642 0.425 1.075c0 0.433-0.142 0.792-0.425 1.075s-0.642 0.425-1.075 0.425z"></path>
</symbol>
<symbol id="icon-search" viewBox="0 0 48 48">
<path d="M38.7 40.85l-12.050-12.050c-1 0.867-2.167 1.542-3.5 2.025s-2.75 0.725-4.25 0.725c-3.6 0-6.65-1.25-9.15-3.75s-3.75-5.517-3.75-9.050c0-3.533 1.25-6.55 3.75-9.050s5.533-3.75 9.1-3.75c3.533 0 6.542 1.25 9.025 3.75s3.725 5.517 3.725 9.050c0 1.433-0.233 2.817-0.7 4.15-0.517 1.438-1.229 2.681-2.118 3.773l0.018-0.023 12.15 12.050c0.3 0.267 0.45 0.608 0.45 1.025s-0.167 0.792-0.5 1.125c-0.3 0.3-0.667 0.45-1.1 0.45s-0.8-0.15-1.1-0.45zM18.85 28.55c2.7 0 5-0.958 6.9-2.875s2.85-4.225 2.85-6.925-0.95-5.008-2.85-6.925c-1.9-1.917-4.2-2.875-6.9-2.875-2.733 0-5.058 0.958-6.975 2.875s-2.875 4.225-2.875 6.925 0.958 5.008 2.875 6.925c1.917 1.917 4.242 2.875 6.975 2.875z"></path>
</symbol>
<symbol id="icon-close" viewBox="0 0 48 48">
<path d="M24 26.1l-10.5 10.5c-0.3 0.3-0.65 0.45-1.050 0.45s-0.75-0.15-1.050-0.45c-0.3-0.3-0.45-0.65-0.45-1.050s0.15-0.75 0.45-1.050l10.5-10.5-10.5-10.5c-0.3-0.3-0.45-0.65-0.45-1.050s0.15-0.75 0.45-1.050c0.3-0.3 0.65-0.45 1.050-0.45s0.75 0.15 1.050 0.45l10.5 10.5 10.5-10.5c0.3-0.3 0.65-0.45 1.050-0.45s0.75 0.15 1.050 0.45c0.3 0.3 0.45 0.65 0.45 1.050s-0.15 0.75-0.45 1.050l-10.5 10.5 10.5 10.5c0.3 0.3 0.45 0.65 0.45 1.050s-0.15 0.75-0.45 1.050c-0.3 0.3-0.65 0.45-1.050 0.45s-0.75-0.15-1.050-0.45l-10.5-10.5z"></path>
</symbol>
<symbol id="icon-chevron_right" viewBox="0 0 48 48">
<path d="M17.7 34.9c-0.248-0.297-0.406-0.679-0.425-1.096l-0-0.004c-0.017-0.4 0.125-0.75 0.425-1.050l8.8-8.8-8.85-8.85c-0.267-0.267-0.392-0.625-0.375-1.075s0.158-0.808 0.425-1.075c0.333-0.333 0.692-0.492 1.075-0.475s0.725 0.175 1.025 0.475l9.95 9.95c0.167 0.167 0.283 0.333 0.35 0.5s0.1 0.35 0.1 0.55c0 0.2-0.033 0.383-0.1 0.55-0.086 0.195-0.204 0.362-0.349 0.499l-0.001 0.001-9.9 9.9c-0.3 0.3-0.65 0.442-1.050 0.425-0.421-0.019-0.802-0.177-1.103-0.427l0.003 0.002z"></path>
</symbol>
<symbol id="icon-chevron_left" viewBox="0 0 48 48">
<path d="M26.95 34.9l-9.9-9.9c-0.146-0.138-0.264-0.305-0.346-0.49l-0.004-0.010c-0.067-0.167-0.1-0.35-0.1-0.55s0.033-0.383 0.1-0.55c0.067-0.167 0.183-0.333 0.35-0.5l9.95-9.95c0.3-0.3 0.658-0.45 1.075-0.45s0.775 0.15 1.075 0.45c0.3 0.3 0.442 0.667 0.425 1.1s-0.175 0.8-0.475 1.1l-8.8 8.8 8.85 8.85c0.3 0.3 0.45 0.65 0.45 1.050s-0.15 0.75-0.45 1.050c-0.3 0.3-0.667 0.45-1.1 0.45s-0.8-0.15-1.1-0.45z"></path>
</symbol>
<symbol id="icon-arrow_back" viewBox="0 0 48 48">
<path d="M22.35 38.95l-13.9-13.9c-0.146-0.138-0.264-0.305-0.346-0.49l-0.004-0.010c-0.067-0.167-0.1-0.35-0.1-0.55s0.033-0.383 0.1-0.55c0.067-0.167 0.183-0.333 0.35-0.5l13.95-13.95c0.267-0.267 0.6-0.4 1-0.4s0.75 0.15 1.050 0.45c0.3 0.3 0.45 0.65 0.45 1.050s-0.15 0.75-0.45 1.050l-11.35 11.35h24.8c0.433 0 0.792 0.142 1.075 0.425s0.425 0.642 0.425 1.075c0 0.433-0.142 0.792-0.425 1.075s-0.642 0.425-1.075 0.425h-24.8l11.4 11.4c0.267 0.267 0.4 0.6 0.4 1s-0.15 0.75-0.45 1.050c-0.3 0.3-0.65 0.45-1.050 0.45s-0.75-0.15-1.050-0.45z"></path>
</symbol>
</defs>
</svg>
